<mxfile host="app.diagrams.net" modified="2024-01-18T20:52:17.392Z" agent="Mozilla/5.0 (Windows NT 10.0; Win64; x64) AppleWebKit/537.36 (KHTML, like Gecko) Chrome/120.0.0.0 Safari/537.36 Edg/120.0.0.0" etag="8_S4D-5v0Be8QLxvKa5-" version="22.1.21" type="github" pages="3">
  <diagram name="Context Diagram" id="isF_3AFGJhiwNA9Eiq8M">
    <mxGraphModel dx="1878" dy="1072" grid="1" gridSize="10" guides="1" tooltips="1" connect="1" arrows="1" fold="1" page="1" pageScale="1" pageWidth="850" pageHeight="1100" math="0" shadow="0">
      <root>
        <mxCell id="0" />
        <mxCell id="1" parent="0" />
        <mxCell id="8bSUecY0tnSQXILsxd97-2" value="&lt;font style=&quot;border-color: var(--border-color); font-size: 20px;&quot;&gt;&lt;b style=&quot;border-color: var(--border-color);&quot;&gt;Eco-Guard System&lt;br style=&quot;border-color: var(--border-color);&quot;&gt;&lt;/b&gt;&lt;/font&gt;&lt;br style=&quot;border-color: var(--border-color);&quot;&gt;Web Application&lt;br style=&quot;border-color: var(--border-color);&quot;&gt;User interface&lt;br style=&quot;border-color: var(--border-color);&quot;&gt;Sensor Management&lt;br style=&quot;border-color: var(--border-color);&quot;&gt;Real Time monitoring&lt;br style=&quot;border-color: var(--border-color);&quot;&gt;Notification System&lt;br&gt;Location Tracking" style="ellipse;whiteSpace=wrap;html=1;aspect=fixed;fontSize=16;fillColor=#d5e8d4;strokeColor=#82b366;" vertex="1" parent="1">
          <mxGeometry x="300" y="370" width="280" height="280" as="geometry" />
        </mxCell>
        <mxCell id="8bSUecY0tnSQXILsxd97-3" value="Forest Monitoring&lt;br&gt;Department&lt;br&gt;Member" style="whiteSpace=wrap;html=1;fontSize=16;imageAspect=1;resizable=1;autosize=0;recursiveResize=1;perimeter=rectanglePerimeter;resizeHeight=0;resizeWidth=0;fixedWidth=0;expand=1;editable=1;movable=1;rotatable=1;deletable=1;locked=0;connectable=1;glass=0;fillStyle=auto;gradientDirection=north;fillColor=#ffe6cc;strokeColor=#d79b00;rounded=0;shadow=0;" vertex="1" parent="1">
          <mxGeometry x="590" y="210" width="140" height="120" as="geometry" />
        </mxCell>
        <mxCell id="8bSUecY0tnSQXILsxd97-5" value="Users" style="whiteSpace=wrap;html=1;fontSize=16;imageAspect=1;resizable=1;autosize=0;recursiveResize=1;perimeter=rectanglePerimeter;resizeHeight=0;resizeWidth=0;fixedWidth=0;expand=1;editable=1;movable=1;rotatable=1;deletable=1;locked=0;connectable=1;glass=0;fillStyle=auto;gradientDirection=north;fillColor=#ffe6cc;strokeColor=#d79b00;rounded=0;shadow=0;" vertex="1" parent="1">
          <mxGeometry x="140" y="210" width="140" height="120" as="geometry" />
        </mxCell>
        <mxCell id="8bSUecY0tnSQXILsxd97-8" style="edgeStyle=none;curved=1;rounded=0;orthogonalLoop=1;jettySize=auto;html=1;entryX=0.5;entryY=1;entryDx=0;entryDy=0;fontSize=12;startSize=8;endSize=8;" edge="1" parent="1" source="8bSUecY0tnSQXILsxd97-7" target="8bSUecY0tnSQXILsxd97-2">
          <mxGeometry relative="1" as="geometry" />
        </mxCell>
        <mxCell id="8bSUecY0tnSQXILsxd97-24" value="Response" style="edgeLabel;html=1;align=center;verticalAlign=middle;resizable=0;points=[];fontSize=16;" vertex="1" connectable="0" parent="8bSUecY0tnSQXILsxd97-8">
          <mxGeometry x="-0.1944" y="-2" relative="1" as="geometry">
            <mxPoint as="offset" />
          </mxGeometry>
        </mxCell>
        <mxCell id="8bSUecY0tnSQXILsxd97-7" value="Node MCU&lt;br&gt;&lt;font style=&quot;font-size: 10px;&quot;&gt;IOT Device with Sensors&lt;/font&gt;" style="whiteSpace=wrap;html=1;fontSize=16;imageAspect=1;resizable=1;autosize=0;recursiveResize=1;perimeter=rectanglePerimeter;resizeHeight=0;resizeWidth=0;fixedWidth=0;expand=1;editable=1;movable=1;rotatable=1;deletable=1;locked=0;connectable=1;glass=0;fillStyle=auto;gradientDirection=north;fillColor=#647687;strokeColor=#314354;rounded=0;shadow=0;fontColor=#ffffff;" vertex="1" parent="1">
          <mxGeometry x="370" y="730" width="140" height="120" as="geometry" />
        </mxCell>
        <mxCell id="8bSUecY0tnSQXILsxd97-16" value="" style="edgeStyle=elbowEdgeStyle;elbow=vertical;endArrow=classic;html=1;curved=0;rounded=0;endSize=8;startSize=8;fontSize=12;exitX=0.068;exitY=0.25;exitDx=0;exitDy=0;exitPerimeter=0;" edge="1" parent="1" source="8bSUecY0tnSQXILsxd97-2">
          <mxGeometry width="50" height="50" relative="1" as="geometry">
            <mxPoint x="300" y="530" as="sourcePoint" />
            <mxPoint x="210" y="330" as="targetPoint" />
            <Array as="points">
              <mxPoint x="270" y="440" />
            </Array>
          </mxGeometry>
        </mxCell>
        <mxCell id="8bSUecY0tnSQXILsxd97-17" value="" style="edgeStyle=segmentEdgeStyle;endArrow=classic;html=1;curved=0;rounded=0;endSize=8;startSize=8;fontSize=12;entryX=0;entryY=0;entryDx=0;entryDy=0;" edge="1" parent="1" target="8bSUecY0tnSQXILsxd97-2">
          <mxGeometry width="50" height="50" relative="1" as="geometry">
            <mxPoint x="240" y="330" as="sourcePoint" />
            <mxPoint x="160" y="400" as="targetPoint" />
            <Array as="points">
              <mxPoint x="240" y="330" />
              <mxPoint x="240" y="411" />
            </Array>
          </mxGeometry>
        </mxCell>
        <mxCell id="8bSUecY0tnSQXILsxd97-18" value="Register" style="edgeLabel;html=1;align=center;verticalAlign=middle;resizable=0;points=[];fontSize=16;" vertex="1" connectable="0" parent="8bSUecY0tnSQXILsxd97-17">
          <mxGeometry x="-0.1739" y="-1" relative="1" as="geometry">
            <mxPoint x="21" y="-25" as="offset" />
          </mxGeometry>
        </mxCell>
        <mxCell id="8bSUecY0tnSQXILsxd97-19" value="Notify" style="edgeLabel;html=1;align=center;verticalAlign=middle;resizable=0;points=[];fontSize=16;" vertex="1" connectable="0" parent="8bSUecY0tnSQXILsxd97-17">
          <mxGeometry x="-0.1739" y="-1" relative="1" as="geometry">
            <mxPoint x="21" y="35" as="offset" />
          </mxGeometry>
        </mxCell>
        <mxCell id="8bSUecY0tnSQXILsxd97-20" value="" style="edgeStyle=elbowEdgeStyle;elbow=vertical;endArrow=classic;html=1;curved=0;rounded=0;endSize=8;startSize=8;fontSize=12;entryX=0.435;entryY=1.018;entryDx=0;entryDy=0;entryPerimeter=0;exitX=0.916;exitY=0.233;exitDx=0;exitDy=0;exitPerimeter=0;" edge="1" parent="1" source="8bSUecY0tnSQXILsxd97-2">
          <mxGeometry width="50" height="50" relative="1" as="geometry">
            <mxPoint x="574.1640786499875" y="467.84" as="sourcePoint" />
            <mxPoint x="650.8999999999999" y="329.99999999999994" as="targetPoint" />
            <Array as="points">
              <mxPoint x="610" y="435" />
            </Array>
          </mxGeometry>
        </mxCell>
        <mxCell id="8bSUecY0tnSQXILsxd97-21" value="" style="edgeStyle=segmentEdgeStyle;endArrow=classic;html=1;curved=0;rounded=0;endSize=8;startSize=8;fontSize=12;exitX=0.25;exitY=1;exitDx=0;exitDy=0;" edge="1" parent="1" source="8bSUecY0tnSQXILsxd97-3" target="8bSUecY0tnSQXILsxd97-2">
          <mxGeometry width="50" height="50" relative="1" as="geometry">
            <mxPoint x="680" y="357.84" as="sourcePoint" />
            <mxPoint x="560" y="410" as="targetPoint" />
            <Array as="points">
              <mxPoint x="625" y="410" />
            </Array>
          </mxGeometry>
        </mxCell>
        <mxCell id="8bSUecY0tnSQXILsxd97-22" value="Register" style="edgeLabel;html=1;align=center;verticalAlign=middle;resizable=0;points=[];fontSize=16;" vertex="1" connectable="0" parent="8bSUecY0tnSQXILsxd97-21">
          <mxGeometry x="-0.1739" y="-1" relative="1" as="geometry">
            <mxPoint x="-14" y="-19" as="offset" />
          </mxGeometry>
        </mxCell>
        <mxCell id="8bSUecY0tnSQXILsxd97-23" value="Notify" style="edgeLabel;html=1;align=center;verticalAlign=middle;resizable=0;points=[];fontSize=16;" vertex="1" connectable="0" parent="8bSUecY0tnSQXILsxd97-21">
          <mxGeometry x="-0.1739" y="-1" relative="1" as="geometry">
            <mxPoint x="-21" y="35" as="offset" />
          </mxGeometry>
        </mxCell>
      </root>
    </mxGraphModel>
  </diagram>
  <diagram name="Copy of Context Diagram" id="G_Z1w2eei_NWnaJJVMPD">
    <mxGraphModel dx="1425" dy="813" grid="1" gridSize="10" guides="1" tooltips="1" connect="1" arrows="1" fold="1" page="1" pageScale="1" pageWidth="850" pageHeight="1100" math="0" shadow="0">
      <root>
        <mxCell id="zQtHp6Epymdsno-iWiZK-0" />
        <mxCell id="zQtHp6Epymdsno-iWiZK-1" parent="zQtHp6Epymdsno-iWiZK-0" />
        <mxCell id="kzB733Oi7Ji3qb4j0iUT-13" style="edgeStyle=none;curved=1;rounded=0;orthogonalLoop=1;jettySize=auto;html=1;entryX=0.5;entryY=1;entryDx=0;entryDy=0;fontSize=12;startSize=8;endSize=8;" edge="1" parent="zQtHp6Epymdsno-iWiZK-1" source="zQtHp6Epymdsno-iWiZK-2" target="kzB733Oi7Ji3qb4j0iUT-9">
          <mxGeometry relative="1" as="geometry" />
        </mxCell>
        <mxCell id="zQtHp6Epymdsno-iWiZK-2" value="&lt;font style=&quot;border-color: var(--border-color); font-size: 20px;&quot;&gt;&lt;b style=&quot;border-color: var(--border-color);&quot;&gt;Eco-Guard System&lt;/b&gt;&lt;/font&gt;&lt;br style=&quot;border-color: var(--border-color);&quot;&gt;&lt;font size=&quot;1&quot; style=&quot;&quot;&gt;&lt;b style=&quot;font-size: 20px;&quot;&gt;&lt;br&gt;&lt;/b&gt;&lt;/font&gt;Web Application&lt;br style=&quot;border-color: var(--border-color);&quot;&gt;User interface&lt;br style=&quot;border-color: var(--border-color);&quot;&gt;Sensor Management&lt;br style=&quot;border-color: var(--border-color);&quot;&gt;Real Time monitoring" style="ellipse;whiteSpace=wrap;html=1;aspect=fixed;fontSize=16;fillColor=#d5e8d4;strokeColor=#82b366;" vertex="1" parent="zQtHp6Epymdsno-iWiZK-1">
          <mxGeometry x="300" y="370" width="280" height="280" as="geometry" />
        </mxCell>
        <mxCell id="zQtHp6Epymdsno-iWiZK-3" value="Forest Monitoring&lt;br&gt;Department&lt;br&gt;Member" style="whiteSpace=wrap;html=1;fontSize=16;imageAspect=1;resizable=1;autosize=0;recursiveResize=1;perimeter=rectanglePerimeter;resizeHeight=0;resizeWidth=0;fixedWidth=0;expand=1;editable=1;movable=1;rotatable=1;deletable=1;locked=0;connectable=1;glass=0;fillStyle=auto;gradientDirection=north;fillColor=#ffe6cc;strokeColor=#d79b00;rounded=0;shadow=0;" vertex="1" parent="zQtHp6Epymdsno-iWiZK-1">
          <mxGeometry x="590" y="210" width="140" height="120" as="geometry" />
        </mxCell>
        <mxCell id="zQtHp6Epymdsno-iWiZK-4" value="Users" style="whiteSpace=wrap;html=1;fontSize=16;imageAspect=1;resizable=1;autosize=0;recursiveResize=1;perimeter=rectanglePerimeter;resizeHeight=0;resizeWidth=0;fixedWidth=0;expand=1;editable=1;movable=1;rotatable=1;deletable=1;locked=0;connectable=1;glass=0;fillStyle=auto;gradientDirection=north;fillColor=#ffe6cc;strokeColor=#d79b00;rounded=0;shadow=0;" vertex="1" parent="zQtHp6Epymdsno-iWiZK-1">
          <mxGeometry x="140" y="210" width="140" height="120" as="geometry" />
        </mxCell>
        <mxCell id="zQtHp6Epymdsno-iWiZK-5" style="edgeStyle=none;curved=1;rounded=0;orthogonalLoop=1;jettySize=auto;html=1;entryX=0.5;entryY=1;entryDx=0;entryDy=0;fontSize=12;startSize=8;endSize=8;" edge="1" parent="zQtHp6Epymdsno-iWiZK-1" source="zQtHp6Epymdsno-iWiZK-7" target="zQtHp6Epymdsno-iWiZK-2">
          <mxGeometry relative="1" as="geometry" />
        </mxCell>
        <mxCell id="zQtHp6Epymdsno-iWiZK-6" value="Response" style="edgeLabel;html=1;align=center;verticalAlign=middle;resizable=0;points=[];fontSize=16;" vertex="1" connectable="0" parent="zQtHp6Epymdsno-iWiZK-5">
          <mxGeometry x="-0.1944" y="-2" relative="1" as="geometry">
            <mxPoint as="offset" />
          </mxGeometry>
        </mxCell>
        <mxCell id="zQtHp6Epymdsno-iWiZK-7" value="Node MCU&lt;br&gt;&lt;font style=&quot;font-size: 10px;&quot;&gt;IOT Device with Sensors&lt;/font&gt;" style="whiteSpace=wrap;html=1;fontSize=16;imageAspect=1;resizable=1;autosize=0;recursiveResize=1;perimeter=rectanglePerimeter;resizeHeight=0;resizeWidth=0;fixedWidth=0;expand=1;editable=1;movable=1;rotatable=1;deletable=1;locked=0;connectable=1;glass=0;fillStyle=auto;gradientDirection=north;fillColor=#647687;strokeColor=#314354;rounded=0;shadow=0;fontColor=#ffffff;" vertex="1" parent="zQtHp6Epymdsno-iWiZK-1">
          <mxGeometry x="370" y="730" width="140" height="120" as="geometry" />
        </mxCell>
        <mxCell id="zQtHp6Epymdsno-iWiZK-8" value="" style="edgeStyle=elbowEdgeStyle;elbow=vertical;endArrow=classic;html=1;curved=0;rounded=0;endSize=8;startSize=8;fontSize=12;exitX=0;exitY=0.5;exitDx=0;exitDy=0;entryX=1;entryY=0.5;entryDx=0;entryDy=0;" edge="1" parent="zQtHp6Epymdsno-iWiZK-1" source="kzB733Oi7Ji3qb4j0iUT-9" target="zQtHp6Epymdsno-iWiZK-4">
          <mxGeometry width="50" height="50" relative="1" as="geometry">
            <mxPoint x="300" y="530" as="sourcePoint" />
            <mxPoint x="210" y="330" as="targetPoint" />
            <Array as="points">
              <mxPoint x="320" y="270" />
            </Array>
          </mxGeometry>
        </mxCell>
        <mxCell id="zQtHp6Epymdsno-iWiZK-9" value="" style="edgeStyle=segmentEdgeStyle;endArrow=classic;html=1;curved=0;rounded=0;endSize=8;startSize=8;fontSize=12;entryX=0;entryY=0;entryDx=0;entryDy=0;" edge="1" parent="zQtHp6Epymdsno-iWiZK-1" target="zQtHp6Epymdsno-iWiZK-2">
          <mxGeometry width="50" height="50" relative="1" as="geometry">
            <mxPoint x="240" y="330" as="sourcePoint" />
            <mxPoint x="160" y="400" as="targetPoint" />
            <Array as="points">
              <mxPoint x="240" y="330" />
              <mxPoint x="240" y="411" />
            </Array>
          </mxGeometry>
        </mxCell>
        <mxCell id="zQtHp6Epymdsno-iWiZK-10" value="Register" style="edgeLabel;html=1;align=center;verticalAlign=middle;resizable=0;points=[];fontSize=16;" vertex="1" connectable="0" parent="zQtHp6Epymdsno-iWiZK-9">
          <mxGeometry x="-0.1739" y="-1" relative="1" as="geometry">
            <mxPoint x="21" y="-25" as="offset" />
          </mxGeometry>
        </mxCell>
        <mxCell id="zQtHp6Epymdsno-iWiZK-11" value="Notify" style="edgeLabel;html=1;align=center;verticalAlign=middle;resizable=0;points=[];fontSize=16;" vertex="1" connectable="0" parent="zQtHp6Epymdsno-iWiZK-9">
          <mxGeometry x="-0.1739" y="-1" relative="1" as="geometry">
            <mxPoint x="81" y="-135" as="offset" />
          </mxGeometry>
        </mxCell>
        <mxCell id="zQtHp6Epymdsno-iWiZK-13" value="" style="edgeStyle=segmentEdgeStyle;endArrow=classic;html=1;curved=0;rounded=0;endSize=8;startSize=8;fontSize=12;exitX=0.25;exitY=1;exitDx=0;exitDy=0;" edge="1" parent="zQtHp6Epymdsno-iWiZK-1" source="zQtHp6Epymdsno-iWiZK-3" target="zQtHp6Epymdsno-iWiZK-2">
          <mxGeometry width="50" height="50" relative="1" as="geometry">
            <mxPoint x="680" y="357.84" as="sourcePoint" />
            <mxPoint x="560" y="410" as="targetPoint" />
            <Array as="points">
              <mxPoint x="625" y="410" />
            </Array>
          </mxGeometry>
        </mxCell>
        <mxCell id="zQtHp6Epymdsno-iWiZK-14" value="Register" style="edgeLabel;html=1;align=center;verticalAlign=middle;resizable=0;points=[];fontSize=16;" vertex="1" connectable="0" parent="zQtHp6Epymdsno-iWiZK-13">
          <mxGeometry x="-0.1739" y="-1" relative="1" as="geometry">
            <mxPoint x="-14" y="-19" as="offset" />
          </mxGeometry>
        </mxCell>
        <mxCell id="kzB733Oi7Ji3qb4j0iUT-0" value="MQ2 sensor&lt;br&gt;&lt;font style=&quot;font-size: 10px;&quot;&gt;Gas and Smoke Detection&lt;/font&gt;" style="whiteSpace=wrap;html=1;fontSize=16;imageAspect=1;resizable=1;autosize=0;recursiveResize=1;perimeter=rectanglePerimeter;resizeHeight=0;resizeWidth=0;fixedWidth=0;expand=1;editable=1;movable=1;rotatable=1;deletable=1;locked=0;connectable=1;glass=0;fillStyle=auto;gradientDirection=north;fillColor=#76608a;strokeColor=#432D57;rounded=0;shadow=0;fontColor=#ffffff;" vertex="1" parent="zQtHp6Epymdsno-iWiZK-1">
          <mxGeometry x="180" y="825" width="110" height="70" as="geometry" />
        </mxCell>
        <mxCell id="kzB733Oi7Ji3qb4j0iUT-1" value="Flame Detection sensor" style="whiteSpace=wrap;html=1;fontSize=16;imageAspect=1;resizable=1;autosize=0;recursiveResize=1;perimeter=rectanglePerimeter;resizeHeight=0;resizeWidth=0;fixedWidth=0;expand=1;editable=1;movable=1;rotatable=1;deletable=1;locked=0;connectable=1;glass=0;fillStyle=auto;gradientDirection=north;fillColor=#fa6800;strokeColor=#C73500;rounded=0;shadow=0;fontColor=#000000;" vertex="1" parent="zQtHp6Epymdsno-iWiZK-1">
          <mxGeometry x="362.5" y="920" width="155" height="70" as="geometry" />
        </mxCell>
        <mxCell id="kzB733Oi7Ji3qb4j0iUT-2" value="Alarms&lt;br&gt;LED / Siren" style="whiteSpace=wrap;html=1;fontSize=16;imageAspect=1;resizable=1;autosize=0;recursiveResize=1;perimeter=rectanglePerimeter;resizeHeight=0;resizeWidth=0;fixedWidth=0;expand=1;editable=1;movable=1;rotatable=1;deletable=1;locked=0;connectable=1;glass=0;fillStyle=auto;gradientDirection=north;fillColor=#e3c800;strokeColor=#B09500;rounded=0;shadow=0;fontColor=#000000;" vertex="1" parent="zQtHp6Epymdsno-iWiZK-1">
          <mxGeometry x="600" y="825" width="110" height="70" as="geometry" />
        </mxCell>
        <mxCell id="kzB733Oi7Ji3qb4j0iUT-3" value="" style="endArrow=classic;html=1;rounded=0;fontSize=12;startSize=8;endSize=8;curved=1;exitX=1;exitY=0.5;exitDx=0;exitDy=0;entryX=0.011;entryY=0.538;entryDx=0;entryDy=0;entryPerimeter=0;" edge="1" parent="zQtHp6Epymdsno-iWiZK-1" source="kzB733Oi7Ji3qb4j0iUT-0" target="zQtHp6Epymdsno-iWiZK-7">
          <mxGeometry width="50" height="50" relative="1" as="geometry">
            <mxPoint x="330" y="820" as="sourcePoint" />
            <mxPoint x="380" y="770" as="targetPoint" />
          </mxGeometry>
        </mxCell>
        <mxCell id="kzB733Oi7Ji3qb4j0iUT-4" value="Identify" style="edgeLabel;html=1;align=center;verticalAlign=middle;resizable=0;points=[];fontSize=16;" vertex="1" connectable="0" parent="kzB733Oi7Ji3qb4j0iUT-3">
          <mxGeometry x="-0.2511" relative="1" as="geometry">
            <mxPoint as="offset" />
          </mxGeometry>
        </mxCell>
        <mxCell id="kzB733Oi7Ji3qb4j0iUT-5" value="" style="endArrow=classic;html=1;rounded=0;fontSize=12;startSize=8;endSize=8;curved=1;exitX=0.5;exitY=0;exitDx=0;exitDy=0;entryX=0.5;entryY=1;entryDx=0;entryDy=0;" edge="1" parent="zQtHp6Epymdsno-iWiZK-1" source="kzB733Oi7Ji3qb4j0iUT-1" target="zQtHp6Epymdsno-iWiZK-7">
          <mxGeometry width="50" height="50" relative="1" as="geometry">
            <mxPoint x="375.96000000000004" y="890.44" as="sourcePoint" />
            <mxPoint x="517.96" y="890.44" as="targetPoint" />
          </mxGeometry>
        </mxCell>
        <mxCell id="kzB733Oi7Ji3qb4j0iUT-6" value="Identify" style="edgeLabel;html=1;align=center;verticalAlign=middle;resizable=0;points=[];fontSize=16;" vertex="1" connectable="0" parent="kzB733Oi7Ji3qb4j0iUT-5">
          <mxGeometry x="-0.2511" relative="1" as="geometry">
            <mxPoint as="offset" />
          </mxGeometry>
        </mxCell>
        <mxCell id="kzB733Oi7Ji3qb4j0iUT-7" value="" style="endArrow=classic;html=1;rounded=0;fontSize=12;startSize=8;endSize=8;curved=1;exitX=1;exitY=0.5;exitDx=0;exitDy=0;entryX=0;entryY=0.5;entryDx=0;entryDy=0;" edge="1" parent="zQtHp6Epymdsno-iWiZK-1" source="zQtHp6Epymdsno-iWiZK-7" target="kzB733Oi7Ji3qb4j0iUT-2">
          <mxGeometry width="50" height="50" relative="1" as="geometry">
            <mxPoint x="550" y="830" as="sourcePoint" />
            <mxPoint x="550" y="760" as="targetPoint" />
          </mxGeometry>
        </mxCell>
        <mxCell id="kzB733Oi7Ji3qb4j0iUT-8" value="Command" style="edgeLabel;html=1;align=center;verticalAlign=middle;resizable=0;points=[];fontSize=16;" vertex="1" connectable="0" parent="kzB733Oi7Ji3qb4j0iUT-7">
          <mxGeometry x="-0.2511" relative="1" as="geometry">
            <mxPoint x="9" as="offset" />
          </mxGeometry>
        </mxCell>
        <mxCell id="kzB733Oi7Ji3qb4j0iUT-10" style="edgeStyle=none;curved=1;rounded=0;orthogonalLoop=1;jettySize=auto;html=1;entryX=0;entryY=0.5;entryDx=0;entryDy=0;fontSize=12;startSize=8;endSize=8;" edge="1" parent="zQtHp6Epymdsno-iWiZK-1" source="kzB733Oi7Ji3qb4j0iUT-9" target="zQtHp6Epymdsno-iWiZK-3">
          <mxGeometry relative="1" as="geometry" />
        </mxCell>
        <mxCell id="kzB733Oi7Ji3qb4j0iUT-12" value="Notify" style="edgeLabel;html=1;align=center;verticalAlign=middle;resizable=0;points=[];fontSize=16;" vertex="1" connectable="0" parent="kzB733Oi7Ji3qb4j0iUT-10">
          <mxGeometry x="0.1078" y="1" relative="1" as="geometry">
            <mxPoint x="-4" y="1" as="offset" />
          </mxGeometry>
        </mxCell>
        <mxCell id="kzB733Oi7Ji3qb4j0iUT-9" value="Notification system" style="whiteSpace=wrap;html=1;fontSize=16;imageAspect=1;resizable=1;autosize=0;recursiveResize=1;perimeter=rectanglePerimeter;resizeHeight=0;resizeWidth=0;fixedWidth=0;expand=1;editable=1;movable=1;rotatable=1;deletable=1;locked=0;connectable=1;glass=0;fillStyle=auto;gradientDirection=north;fillColor=#b1ddf0;strokeColor=#10739e;rounded=0;shadow=0;" vertex="1" parent="zQtHp6Epymdsno-iWiZK-1">
          <mxGeometry x="370" y="240" width="140" height="60" as="geometry" />
        </mxCell>
        <mxCell id="kzB733Oi7Ji3qb4j0iUT-14" value="Location&lt;br&gt;&lt;font style=&quot;font-size: 10px;&quot;&gt;By Google Maps&lt;/font&gt;" style="whiteSpace=wrap;html=1;fontSize=16;imageAspect=1;resizable=1;autosize=0;recursiveResize=1;perimeter=rectanglePerimeter;resizeHeight=0;resizeWidth=0;fixedWidth=0;expand=1;editable=1;movable=1;rotatable=1;deletable=1;locked=0;connectable=1;glass=0;fillStyle=auto;gradientDirection=north;fillColor=#647687;strokeColor=#314354;rounded=0;shadow=0;fontColor=#ffffff;" vertex="1" parent="zQtHp6Epymdsno-iWiZK-1">
          <mxGeometry x="620" y="500" width="110" height="70" as="geometry" />
        </mxCell>
        <mxCell id="kzB733Oi7Ji3qb4j0iUT-15" style="edgeStyle=none;curved=1;rounded=0;orthogonalLoop=1;jettySize=auto;html=1;entryX=1.004;entryY=0.59;entryDx=0;entryDy=0;entryPerimeter=0;fontSize=12;startSize=8;endSize=8;" edge="1" parent="zQtHp6Epymdsno-iWiZK-1" source="kzB733Oi7Ji3qb4j0iUT-14" target="zQtHp6Epymdsno-iWiZK-2">
          <mxGeometry relative="1" as="geometry" />
        </mxCell>
      </root>
    </mxGraphModel>
  </diagram>
  <diagram id="7BUWdZqbhtw12gFPf6PW" name="Page-3">
    <mxGraphModel dx="2066" dy="1179" grid="0" gridSize="10" guides="1" tooltips="1" connect="1" arrows="1" fold="1" page="0" pageScale="1" pageWidth="850" pageHeight="1100" math="0" shadow="0">
      <root>
        <mxCell id="0" />
        <mxCell id="1" parent="0" />
      </root>
    </mxGraphModel>
  </diagram>
</mxfile>
